<?xml version="1.0" standalone="no"?>
<!DOCTYPE svg PUBLIC "-//W3C//DTD SVG 20010904//EN"
 "http://www.w3.org/TR/2001/REC-SVG-20010904/DTD/svg10.dtd">
<svg version="1.0" xmlns="http://www.w3.org/2000/svg"
 width="1173.000000pt" height="1173.000000pt" viewBox="0 0 1173.000000 1173.000000"
 preserveAspectRatio="xMidYMid meet">
<metadata>
Created by potrace 1.14, written by Peter Selinger 2001-2017
</metadata>
<g transform="translate(0.000000,1173.000000) scale(0.100000,-0.100000)"
fill="#000000" stroke="none">
<path d="M5549 11726 c-2 -2 -52 -7 -110 -10 -58 -4 -117 -8 -130 -11 -13 -2
-53 -6 -89 -10 -94 -8 -115 -11 -240 -30 -133 -21 -234 -38 -284 -50 -34 -8
-73 -16 -89 -19 -15 -3 -35 -7 -45 -10 -9 -3 -28 -7 -42 -10 -34 -6 -240 -60
-325 -86 -38 -11 -77 -22 -85 -24 -27 -8 -284 -96 -307 -106 -13 -6 -33 -14
-45 -19 -373 -145 -771 -348 -1098 -561 -95 -62 -365 -254 -380 -270 -3 -3
-25 -21 -50 -40 -153 -119 -317 -266 -506 -454 -163 -164 -233 -239 -358 -386
-410 -483 -774 -1109 -999 -1716 -110 -297 -214 -664 -262 -929 -9 -52 -36
-209 -40 -235 -16 -104 -24 -168 -30 -235 -3 -33 -8 -69 -10 -80 -26 -133 -27
-916 -1 -1125 3 -19 7 -60 10 -90 11 -104 38 -297 51 -360 3 -14 7 -38 10 -55
2 -16 9 -55 15 -85 6 -30 13 -66 16 -80 20 -106 132 -526 153 -575 5 -11 28
-76 51 -145 164 -485 460 -1052 776 -1488 68 -94 284 -364 358 -447 120 -135
345 -361 476 -478 69 -62 127 -114 130 -117 3 -3 50 -42 105 -86 412 -330 827
-586 1275 -785 74 -34 148 -67 164 -75 16 -8 33 -14 39 -14 5 0 23 -7 40 -15
253 -117 894 -295 1227 -340 25 -3 52 -8 60 -10 8 -2 38 -7 65 -10 52 -7 57
-8 165 -19 36 -4 76 -9 90 -11 173 -26 965 -26 1130 0 14 2 54 7 90 11 121 12
165 17 230 29 14 3 43 7 65 10 22 3 51 8 65 11 14 2 39 7 55 10 58 10 268 55
274 58 3 2 24 7 46 10 22 4 54 11 70 16 17 5 73 21 125 36 98 26 427 132 445
143 6 3 15 6 20 7 20 4 242 96 360 149 527 237 1039 568 1475 954 121 107 402
386 487 484 39 45 80 91 90 102 75 83 262 326 353 460 30 44 57 82 61 85 13
12 192 306 255 420 66 119 194 373 228 453 9 20 23 53 31 72 112 253 291 798
331 1008 3 20 16 82 29 147 12 53 44 237 50 280 8 57 15 108 20 140 2 14 7 57
10 95 4 39 8 81 10 95 14 96 20 270 20 555 0 324 -7 483 -30 660 -3 22 -8 60
-11 85 -3 25 -7 56 -9 70 -2 14 -7 45 -10 70 -7 56 -32 193 -50 280 -8 36 -16
79 -19 95 -31 171 -145 557 -244 822 -98 262 -265 612 -407 853 -37 63 -73
124 -79 135 -62 111 -289 432 -424 600 -178 223 -498 558 -692 727 -279 242
-557 446 -853 626 -64 40 -118 72 -120 72 -2 0 -50 26 -108 58 -394 219 -883
412 -1334 527 -167 42 -377 87 -465 100 -24 4 -47 8 -50 10 -3 1 -30 6 -61 9
-31 4 -65 8 -75 10 -32 6 -118 17 -160 21 -115 10 -192 17 -219 22 -34 5 -751
13 -756 9z"/>
</g>
</svg>
